<svg id="Layer_1" data-name="Layer 1" xmlns="http://www.w3.org/2000/svg" viewBox="0 0 57.27 51.04"><defs><style>.cls-1{fill:#22b573;stroke:#22b573;stroke-miterlimit:10;stroke-width:2px;}</style></defs><title>logo-green1</title><path class="cls-1" d="M55.43,30.41A11.59,11.59,0,0,0,53,26.61a17.86,17.86,0,0,0-3.82-3,40.82,40.82,0,0,0-5-2.49c-1.37-.57-2.59-1.12-3.68-1.65a17.79,17.79,0,0,1-2.77-1.63,7,7,0,0,1-1.76-1.76,3.73,3.73,0,0,1-.62-2.1,3.6,3.6,0,0,1,.55-1.94,4.87,4.87,0,0,1,1.57-1.48,8.45,8.45,0,0,1,2.48-1,14.16,14.16,0,0,1,3.25-.34,20.78,20.78,0,0,1,2.76.19,22.13,22.13,0,0,1,2.91.6,21.49,21.49,0,0,1,2.85,1,15.39,15.39,0,0,1,2.56,1.43V2.79A25,25,0,0,0,49,1.44,42.58,42.58,0,0,0,42.56,1a30.19,30.19,0,0,0-7,.8A19,19,0,0,0,31,3.5a25.55,25.55,0,0,0-5.17-1.34,42.72,42.72,0,0,0-6.47-.44,30.1,30.1,0,0,0-7,.8A17.77,17.77,0,0,0,6.46,5a12.32,12.32,0,0,0-4,4.32A12.64,12.64,0,0,0,1,15.6a12.16,12.16,0,0,0,2.69,8,20.46,20.46,0,0,0,8.16,5.57c1.43.59,2.77,1.16,4,1.73a21.52,21.52,0,0,1,3.21,1.76,8.38,8.38,0,0,1,2.13,2A4,4,0,0,1,22,37a3.68,3.68,0,0,1-.49,1.87A4.23,4.23,0,0,1,20,40.41a8,8,0,0,1-2.47,1,14.86,14.86,0,0,1-3.47.36,19.68,19.68,0,0,1-6.72-1.19A20,20,0,0,1,1.2,37V47.43a22.1,22.1,0,0,0,6,2,39.92,39.92,0,0,0,7.31.65,34,34,0,0,0,7.12-.72,18,18,0,0,0,4.82-1.73,25,25,0,0,0,4,1.08,40,40,0,0,0,7.32.65,33.94,33.94,0,0,0,7.11-.72,17.29,17.29,0,0,0,5.92-2.36,12.1,12.1,0,0,0,4-4.3,13.3,13.3,0,0,0,1.48-6.57A13.46,13.46,0,0,0,55.43,30.41ZM44.71,38.19a4.32,4.32,0,0,1-1.48,1.5,8.34,8.34,0,0,1-2.48,1,15.46,15.46,0,0,1-3.47.35,19.7,19.7,0,0,1-4.81-.61,15.23,15.23,0,0,0,.59-4.34,13.25,13.25,0,0,0-.85-5,11.56,11.56,0,0,0-2.44-3.8,17.68,17.68,0,0,0-3.83-3,40.65,40.65,0,0,0-5-2.49c-1.37-.57-2.6-1.12-3.68-1.65a18.61,18.61,0,0,1-2.77-1.63,7,7,0,0,1-1.76-1.76,3.65,3.65,0,0,1-.62-2.1,3.51,3.51,0,0,1,.55-1.94A4.77,4.77,0,0,1,14.2,11.3a8.38,8.38,0,0,1,2.47-1A14.31,14.31,0,0,1,19.93,10a20.52,20.52,0,0,1,2.75.19c.72.1,1.44.25,2.17.42a14,14,0,0,0-.64,4.27,12.16,12.16,0,0,0,2.69,7.95,20.46,20.46,0,0,0,8.16,5.57c1.44.59,2.77,1.16,4,1.73a21.52,21.52,0,0,1,3.21,1.76,8.6,8.6,0,0,1,2.14,2,4,4,0,0,1,.78,2.44A3.78,3.78,0,0,1,44.71,38.19Z"/></svg>